<?xml version="1.0" standalone="no"?>
<!DOCTYPE svg PUBLIC "-//W3C//DTD SVG 20010904//EN"
 "http://www.w3.org/TR/2001/REC-SVG-20010904/DTD/svg10.dtd">
<svg version="1.0" xmlns="http://www.w3.org/2000/svg"
 width="204.000000pt" height="189.000000pt" viewBox="0 0 204.000000 189.000000"
 preserveAspectRatio="xMidYMid meet">

<g transform="translate(0.000000,189.000000) scale(0.100000,-0.100000)"
fill="#000000" stroke="none">
<path d="M955 1803 c-140 -22 -313 -101 -417 -190 -37 -32 -90 -87 -118 -121
-49 -62 -132 -218 -146 -274 -3 -16 -10 -28 -14 -28 -5 0 -49 27 -98 60 -89
59 -122 72 -122 48 0 -31 44 -77 121 -128 l84 -55 0 -150 c0 -171 12 -228 76
-365 83 -176 232 -327 400 -403 126 -58 194 -72 349 -72 122 0 158 4 224 23
146 42 301 139 401 250 54 60 124 173 152 246 15 39 35 76 44 83 13 10 15 37
14 195 -2 208 -17 281 -80 408 -145 295 -408 466 -725 475 -63 2 -128 1 -145
-2z m282 -29 c234 -48 449 -208 552 -411 19 -39 21 -57 21 -255 l-1 -213 -30
35 c-17 19 -45 57 -62 85 -18 27 -61 73 -97 103 -36 29 -86 71 -111 92 -34 29
-52 54 -68 99 -25 65 -41 84 -85 101 -22 8 -37 8 -58 -1 -21 -9 -35 -9 -53 -1
-21 10 -27 8 -39 -9 -8 -12 -24 -28 -36 -36 -17 -12 -23 -13 -37 -1 -18 15
-73 129 -73 153 0 9 -9 15 -25 15 -21 0 -26 -8 -45 -72 -12 -40 -30 -82 -40
-92 -20 -21 -15 -23 -86 29 -16 12 -23 13 -37 2 -14 -11 -13 -23 22 -142 43
-146 56 -215 42 -215 -6 0 -42 43 -81 95 -39 52 -77 95 -84 95 -23 0 -36 -26
-30 -58 12 -60 4 -64 -81 -35 -70 23 -78 24 -92 10 -14 -13 -14 -20 -3 -47 7
-17 11 -32 9 -35 -2 -2 -41 12 -87 32 l-82 35 0 123 0 122 49 69 c120 170 293
284 501 330 79 17 238 17 327 -2z m132 -394 c10 -5 33 -43 50 -84 31 -71 38
-78 142 -161 85 -67 117 -100 144 -146 19 -33 62 -85 96 -116 56 -53 97 -109
86 -120 -3 -2 -15 9 -28 26 -29 39 -43 39 -60 -1 -7 -18 -26 -45 -41 -60 -24
-23 -27 -30 -18 -53 14 -36 13 -78 -2 -93 -7 -7 -29 -12 -49 -12 -32 0 -38 4
-45 28 -4 15 -7 41 -5 59 2 23 -3 34 -18 42 -29 16 -32 15 -112 -38 -48 -31
-110 -60 -174 -81 -120 -39 -201 -44 -263 -16 -39 17 -49 18 -110 7 -37 -7
-86 -23 -109 -37 -52 -30 -59 -30 -80 2 -17 26 -16 27 11 50 18 16 40 24 65
24 27 0 68 15 135 51 112 58 195 89 242 89 18 0 36 5 40 11 3 6 22 18 41 26
63 26 113 62 113 82 0 25 -16 30 -63 18 -28 -7 -49 -6 -79 3 -31 11 -44 11
-59 2 -12 -8 -54 -12 -110 -11 -57 1 -94 -2 -101 -9 -19 -19 -60 -14 -115 12
-29 15 -67 25 -91 24 -25 0 -54 8 -74 20 -18 11 -134 66 -257 121 -231 104
-325 157 -377 212 -33 36 -26 33 66 -28 92 -62 234 -133 403 -202 117 -48 157
-60 199 -59 72 0 279 55 298 78 8 10 38 25 67 33 82 24 128 59 117 87 -4 8 -8
30 -9 48 -2 18 -11 44 -19 57 -20 31 -20 45 2 70 36 42 113 66 151 45z m-877
-377 c66 -29 74 -43 23 -43 -24 0 -37 -6 -45 -19 -8 -17 -2 -26 43 -64 41 -35
166 -130 221 -169 13 -9 26 -111 15 -122 -17 -18 -9 -62 14 -83 37 -33 56 -35
90 -9 18 13 52 29 77 36 25 6 53 13 63 16 15 5 17 -5 17 -119 0 -110 2 -126
20 -142 13 -12 27 -15 45 -11 25 6 25 7 25 121 l0 115 59 0 c104 0 285 62 368
125 65 49 84 44 88 -23 2 -28 6 -56 9 -61 10 -15 62 -20 100 -10 49 14 64 45
47 100 -12 40 -11 43 13 66 l26 24 0 -67 c0 -55 -5 -76 -27 -113 -110 -190
-305 -338 -517 -391 -148 -37 -364 -22 -501 35 -132 56 -272 169 -356 288
l-49 70 0 254 0 253 37 -15 c20 -8 63 -27 95 -42z"/>
</g>
</svg>
